<?xml version="1.0" encoding="us-ascii" standalone="no"?><svg xmlns="http://www.w3.org/2000/svg" xmlns:xlink="http://www.w3.org/1999/xlink" contentStyleType="text/css" height="528px" preserveAspectRatio="none" style="width:302px;height:528px;background:#FFFFFF;" version="1.1" viewBox="0 0 302 528" width="302px" zoomAndPan="magnify"><defs/><g><text fill="#000000" font-family="sans-serif" font-size="14" font-weight="bold" lengthAdjust="spacing" textLength="60" x="10" y="24.5332">str-input</text><line style="stroke:#181818;stroke-width:1.5;" x1="40" x2="40" y1="79.4141" y2="79.4141"/><path d="M48,71.4141 C48,77.4141 46,79.4141 40,79.4141 " fill="none" style="stroke:#181818;stroke-width:1.5;"/><line style="stroke:#181818;stroke-width:1.5;" x1="48" x2="48" y1="62.6094" y2="71.4141"/><path d="M48,62.6094 C48,56.6094 50,54.6094 56,54.6094 " fill="none" style="stroke:#181818;stroke-width:1.5;"/><line style="stroke:#181818;stroke-width:1.5;" x1="56" x2="69" y1="54.6094" y2="54.6094"/><path d="M77,71.4141 C77,77.4141 79,79.4141 85,79.4141 " fill="none" style="stroke:#181818;stroke-width:1.5;"/><line style="stroke:#181818;stroke-width:1.5;" x1="77" x2="77" y1="62.6094" y2="71.4141"/><path d="M69,54.6094 C75,54.6094 77,56.6094 77,62.6094 " fill="none" style="stroke:#181818;stroke-width:1.5;"/><line style="stroke:#181818;stroke-width:1.5;" x1="40" x2="55" y1="79.4141" y2="79.4141"/><line style="stroke:#181818;stroke-width:1.5;" x1="70" x2="85" y1="79.4141" y2="79.4141"/><rect fill="none" height="27.6094" style="stroke:#181818;stroke-width:0.5;" width="15" x="55" y="65.6094"/><text fill="#000000" font-family="sans-serif" font-size="14" lengthAdjust="spacing" textLength="5" x="60" y="85.1426">-</text><line style="stroke:#181818;stroke-width:1.5;" x1="85" x2="105" y1="79.4141" y2="79.4141"/><rect fill="#F1F1F1" height="27.6094" rx="5" ry="5" style="stroke:#181818;stroke-width:1.5;" width="36" x="105" y="65.6094"/><text fill="#000000" font-family="sans-serif" font-size="14" lengthAdjust="spacing" textLength="26" x="110" y="85.1426">digit</text><line style="stroke:#181818;stroke-width:1.5;" x1="141" x2="161" y1="79.4141" y2="79.4141"/><path d="M169,71.4141 C169,77.4141 167,79.4141 161,79.4141 " fill="none" style="stroke:#181818;stroke-width:1.5;"/><line style="stroke:#181818;stroke-width:1.5;" x1="169" x2="169" y1="50.6094" y2="71.4141"/><path d="M169,50.6094 C169,44.6094 171,42.6094 177,42.6094 " fill="none" style="stroke:#181818;stroke-width:1.5;"/><line style="stroke:#181818;stroke-width:1.5;" x1="177" x2="241" y1="42.6094" y2="42.6094"/><path d="M200.6,42.6094 L200.6,39.6094 L206.6,42.6094 L200.6,45.6094 L200.6,42.6094 " fill="#181818" style="stroke:#181818;stroke-width:1.5;"/><path d="M249,71.4141 C249,77.4141 251,79.4141 257,79.4141 " fill="none" style="stroke:#181818;stroke-width:1.5;"/><line style="stroke:#181818;stroke-width:1.5;" x1="249" x2="249" y1="50.6094" y2="71.4141"/><path d="M241,42.6094 C247,42.6094 249,44.6094 249,50.6094 " fill="none" style="stroke:#181818;stroke-width:1.5;"/><line style="stroke:#181818;stroke-width:1.5;" x1="161" x2="176" y1="79.4141" y2="79.4141"/><line style="stroke:#181818;stroke-width:1.5;" x1="242" x2="257" y1="79.4141" y2="79.4141"/><path d="M184,71.4141 C184,77.4141 186,79.4141 192,79.4141 " fill="none" style="stroke:#181818;stroke-width:1.5;"/><line style="stroke:#181818;stroke-width:1.5;" x1="184" x2="184" y1="66.6094" y2="71.4141"/><path d="M184,66.6094 C184,60.6094 186,58.6094 192,58.6094 " fill="none" style="stroke:#181818;stroke-width:1.5;"/><line style="stroke:#181818;stroke-width:1.5;" x1="191" x2="227" y1="58.6094" y2="58.6094"/><path d="M210.6,58.6094 L210.6,55.6094 L204.6,58.6094 L210.6,61.6094 L210.6,58.6094 " fill="#181818" style="stroke:#181818;stroke-width:1.5;"/><path d="M234,71.4141 C234,77.4141 232,79.4141 226,79.4141 " fill="none" style="stroke:#181818;stroke-width:1.5;"/><line style="stroke:#181818;stroke-width:1.5;" x1="234" x2="234" y1="66.6094" y2="71.4141"/><path d="M226,58.6094 C232,58.6094 234,60.6094 234,66.6094 " fill="none" style="stroke:#181818;stroke-width:1.5;"/><line style="stroke:#181818;stroke-width:1.5;" x1="176" x2="191" y1="79.4141" y2="79.4141"/><line style="stroke:#181818;stroke-width:1.5;" x1="227" x2="242" y1="79.4141" y2="79.4141"/><rect fill="#F1F1F1" height="27.6094" rx="5" ry="5" style="stroke:#181818;stroke-width:1.5;" width="36" x="191" y="65.6094"/><text fill="#000000" font-family="sans-serif" font-size="14" lengthAdjust="spacing" textLength="26" x="196" y="85.1426">digit</text><ellipse cx="14" cy="79.4141" fill="none" rx="4" ry="4" style="stroke:#181818;stroke-width:2.0;"/><ellipse cx="287" cy="79.4141" fill="#181818" rx="4" ry="4" style="stroke:#181818;stroke-width:1.0;"/><line style="stroke:#181818;stroke-width:1.5;" x1="18" x2="40" y1="79.4141" y2="79.4141"/><line style="stroke:#181818;stroke-width:1.5;" x1="257" x2="283" y1="79.4141" y2="79.4141"/><path d="M268,79.4141 L268,76.4141 L274,79.4141 L268,82.4141 L268,79.4141 " fill="#181818" style="stroke:#181818;stroke-width:1.5;"/><text fill="#000000" font-family="sans-serif" font-size="14" font-weight="bold" lengthAdjust="spacing" textLength="31" x="10" y="122.752">digit</text><rect fill="#F1F1F1" height="27.6094" rx="5" ry="5" style="stroke:#181818;stroke-width:1.5;" width="18" x="64" y="135.8281"/><text fill="#000000" font-family="sans-serif" font-size="14" lengthAdjust="spacing" textLength="8" x="69" y="155.3613">0</text><line style="stroke:#181818;stroke-width:1.5;" x1="40" x2="64" y1="149.6328" y2="149.6328"/><line style="stroke:#181818;stroke-width:1.5;" x1="82" x2="106" y1="149.6328" y2="149.6328"/><rect fill="#F1F1F1" height="27.6094" rx="5" ry="5" style="stroke:#181818;stroke-width:1.5;" width="18" x="64" y="173.4375"/><text fill="#000000" font-family="sans-serif" font-size="14" lengthAdjust="spacing" textLength="8" x="69" y="192.9707">1</text><path d="M52,175.2422 C52,184.2422 55,187.2422 64,187.2422 " fill="none" style="stroke:#181818;stroke-width:1.5;"/><line style="stroke:#181818;stroke-width:1.5;" x1="82" x2="82" y1="187.2422" y2="187.2422"/><path d="M94,175.2422 C94,184.2422 91,187.2422 82,187.2422 " fill="none" style="stroke:#181818;stroke-width:1.5;"/><rect fill="#F1F1F1" height="27.6094" rx="5" ry="5" style="stroke:#181818;stroke-width:1.5;" width="18" x="64" y="211.0469"/><text fill="#000000" font-family="sans-serif" font-size="14" lengthAdjust="spacing" textLength="8" x="69" y="230.5801">2</text><path d="M52,212.8516 C52,221.8516 55,224.8516 64,224.8516 " fill="none" style="stroke:#181818;stroke-width:1.5;"/><line style="stroke:#181818;stroke-width:1.5;" x1="82" x2="82" y1="224.8516" y2="224.8516"/><path d="M94,212.8516 C94,221.8516 91,224.8516 82,224.8516 " fill="none" style="stroke:#181818;stroke-width:1.5;"/><rect fill="#F1F1F1" height="27.6094" rx="5" ry="5" style="stroke:#181818;stroke-width:1.5;" width="18" x="64" y="248.6563"/><text fill="#000000" font-family="sans-serif" font-size="14" lengthAdjust="spacing" textLength="8" x="69" y="268.1895">3</text><path d="M52,250.4609 C52,259.4609 55,262.4609 64,262.4609 " fill="none" style="stroke:#181818;stroke-width:1.5;"/><line style="stroke:#181818;stroke-width:1.5;" x1="82" x2="82" y1="262.4609" y2="262.4609"/><path d="M94,250.4609 C94,259.4609 91,262.4609 82,262.4609 " fill="none" style="stroke:#181818;stroke-width:1.5;"/><rect fill="#F1F1F1" height="27.6094" rx="5" ry="5" style="stroke:#181818;stroke-width:1.5;" width="18" x="64" y="286.2656"/><text fill="#000000" font-family="sans-serif" font-size="14" lengthAdjust="spacing" textLength="8" x="69" y="305.7988">4</text><path d="M52,288.0703 C52,297.0703 55,300.0703 64,300.0703 " fill="none" style="stroke:#181818;stroke-width:1.5;"/><line style="stroke:#181818;stroke-width:1.5;" x1="82" x2="82" y1="300.0703" y2="300.0703"/><path d="M94,288.0703 C94,297.0703 91,300.0703 82,300.0703 " fill="none" style="stroke:#181818;stroke-width:1.5;"/><rect fill="#F1F1F1" height="27.6094" rx="5" ry="5" style="stroke:#181818;stroke-width:1.5;" width="18" x="64" y="323.875"/><text fill="#000000" font-family="sans-serif" font-size="14" lengthAdjust="spacing" textLength="8" x="69" y="343.4082">5</text><path d="M52,325.6797 C52,334.6797 55,337.6797 64,337.6797 " fill="none" style="stroke:#181818;stroke-width:1.5;"/><line style="stroke:#181818;stroke-width:1.5;" x1="82" x2="82" y1="337.6797" y2="337.6797"/><path d="M94,325.6797 C94,334.6797 91,337.6797 82,337.6797 " fill="none" style="stroke:#181818;stroke-width:1.5;"/><rect fill="#F1F1F1" height="27.6094" rx="5" ry="5" style="stroke:#181818;stroke-width:1.5;" width="18" x="64" y="361.4844"/><text fill="#000000" font-family="sans-serif" font-size="14" lengthAdjust="spacing" textLength="8" x="69" y="381.0176">6</text><path d="M52,363.2891 C52,372.2891 55,375.2891 64,375.2891 " fill="none" style="stroke:#181818;stroke-width:1.5;"/><line style="stroke:#181818;stroke-width:1.5;" x1="82" x2="82" y1="375.2891" y2="375.2891"/><path d="M94,363.2891 C94,372.2891 91,375.2891 82,375.2891 " fill="none" style="stroke:#181818;stroke-width:1.5;"/><rect fill="#F1F1F1" height="27.6094" rx="5" ry="5" style="stroke:#181818;stroke-width:1.5;" width="18" x="64" y="399.0938"/><text fill="#000000" font-family="sans-serif" font-size="14" lengthAdjust="spacing" textLength="8" x="69" y="418.627">7</text><path d="M52,400.8984 C52,409.8984 55,412.8984 64,412.8984 " fill="none" style="stroke:#181818;stroke-width:1.5;"/><line style="stroke:#181818;stroke-width:1.5;" x1="82" x2="82" y1="412.8984" y2="412.8984"/><path d="M94,400.8984 C94,409.8984 91,412.8984 82,412.8984 " fill="none" style="stroke:#181818;stroke-width:1.5;"/><rect fill="#F1F1F1" height="27.6094" rx="5" ry="5" style="stroke:#181818;stroke-width:1.5;" width="18" x="64" y="436.7031"/><text fill="#000000" font-family="sans-serif" font-size="14" lengthAdjust="spacing" textLength="8" x="69" y="456.2363">8</text><path d="M52,438.5078 C52,447.5078 55,450.5078 64,450.5078 " fill="none" style="stroke:#181818;stroke-width:1.5;"/><line style="stroke:#181818;stroke-width:1.5;" x1="82" x2="82" y1="450.5078" y2="450.5078"/><path d="M94,438.5078 C94,447.5078 91,450.5078 82,450.5078 " fill="none" style="stroke:#181818;stroke-width:1.5;"/><rect fill="#F1F1F1" height="27.6094" rx="5" ry="5" style="stroke:#181818;stroke-width:1.5;" width="18" x="64" y="474.3125"/><text fill="#000000" font-family="sans-serif" font-size="14" lengthAdjust="spacing" textLength="8" x="69" y="493.8457">9</text><line style="stroke:#181818;stroke-width:1.5;" x1="82" x2="82" y1="488.1172" y2="488.1172"/><path d="M52,476.1172 C52,485.1172 55,488.1172 64,488.1172 " fill="none" style="stroke:#181818;stroke-width:1.5;"/><line style="stroke:#181818;stroke-width:1.5;" x1="52" x2="52" y1="161.6328" y2="476.1172"/><path d="M40,149.6328 C49,149.6328 52,152.6328 52,161.6328 " fill="none" style="stroke:#181818;stroke-width:1.5;"/><path d="M94,476.1172 C94,485.1172 91,488.1172 82,488.1172 " fill="none" style="stroke:#181818;stroke-width:1.5;"/><line style="stroke:#181818;stroke-width:1.5;" x1="94" x2="94" y1="161.6328" y2="476.1172"/><path d="M94,161.6328 C94,152.6328 97,149.6328 106,149.6328 " fill="none" style="stroke:#181818;stroke-width:1.5;"/><ellipse cx="14" cy="149.6328" fill="none" rx="4" ry="4" style="stroke:#181818;stroke-width:2.0;"/><ellipse cx="136" cy="149.6328" fill="#181818" rx="4" ry="4" style="stroke:#181818;stroke-width:1.0;"/><line style="stroke:#181818;stroke-width:1.5;" x1="18" x2="40" y1="149.6328" y2="149.6328"/><line style="stroke:#181818;stroke-width:1.5;" x1="106" x2="132" y1="149.6328" y2="149.6328"/><path d="M117,149.6328 L117,146.6328 L123,149.6328 L117,152.6328 L117,149.6328 " fill="#181818" style="stroke:#181818;stroke-width:1.5;"/><!--SRC=[HOvFQy904CNl-oa6JmaOCNzgTQKWDbP84ofjz59wMCqO5dHMDhk1qkrtxpPGUdhmthpVl5LdX3Puf3FhZ8uatQo11tWVHQEFCJIobMOCNuD-BzcWFWwcBdQ9IrtcxjpCtRkvMuHBja9g1XJRNGIPVLL2ZxgJYY2U9DCadIo2sY8KrXifn1bFOfvaiCbh-8r35cnt9NJAwXFwvtwHF5hZ-o4hH2_WrPAHL-JmSaCgykS_0pRKIwteYcHOSQZ-3sPPjFQJtr3x9N2eM8vdOI_6DqwgaTHosDTFqPoLWbehMiz6Oe_AS_KdX-tw1m00]--></g></svg>